<svg width="24" height="24" viewBox="0 0 24 24" fill="none" xmlns="http://www.w3.org/2000/svg">
<g id="email 1">
<g id="Group">
<g id="Group_2">
<path id="Vector" d="M4.08751 4.6875H19.9125C20.8418 4.6875 21.6 5.44485 21.6 6.375V17.625C21.6 18.552 20.8452 19.3125 19.9125 19.3125H4.08751C3.16051 19.3125 2.40001 18.5577 2.40001 17.625V6.375C2.40001 5.448 3.15481 4.6875 4.08751 4.6875ZM4.32053 5.8125L11.9642 13.4562L19.674 5.8125H4.32053ZM20.475 17.3921V6.60259L15.057 11.9741L20.475 17.3921ZM19.6795 18.1875L14.2581 12.7661L12.3585 14.6495C12.1386 14.8675 11.7837 14.8668 11.5647 14.6477L9.71251 12.7955L4.3205 18.1875H19.6795ZM3.52501 17.392L8.91702 12L3.52501 6.60795V17.392Z" fill="#6D6D6D"/>
</g>
</g>
</g>
</svg>
