<svg width="24" height="24" viewBox="0 0 24 24" fill="none" xmlns="http://www.w3.org/2000/svg">
<g id="privacy 1">
<path id="Vector" d="M11.996 18.0157C12.3843 18.0157 12.6991 17.7008 12.6991 17.3126V14.4C12.6991 14.0116 12.3843 13.6968 11.996 13.6968C11.6078 13.6968 11.2928 14.0116 11.2928 14.4V17.3126C11.2928 17.7008 11.6078 18.0157 11.996 18.0157Z" fill="#6D6D6D"/>
<path id="Vector_2" d="M20.0544 7.7124H16.7267V4.28723C16.7267 1.92316 14.6045 0 11.996 0C9.38763 0 7.26544 1.92316 7.26544 4.28723V7.7124H3.9375C3.54913 7.7124 3.23438 8.02734 3.23438 8.41553V17.4077C3.23438 21.0427 6.19171 24 9.82672 24H14.1654C17.8004 24 20.7578 21.0427 20.7578 17.4077V8.41553C20.7576 8.02734 20.4428 7.7124 20.0544 7.7124ZM8.67169 4.28723C8.67169 2.69861 10.1629 1.40625 11.996 1.40625C13.829 1.40625 15.3204 2.69861 15.3204 4.28723V7.7124H8.67169V4.28723ZM19.3513 17.4077C19.3513 20.2672 17.025 22.5938 14.1652 22.5938H9.82672C6.96716 22.5938 4.64062 20.2672 4.64062 17.4077V9.11865H19.3513V17.4077Z" fill="#6D6D6D"/>
</g>
</svg>
